<mxfile host="app.diagrams.net" agent="Mozilla/5.0 (Windows NT 10.0; Win64; x64) AppleWebKit/537.36 (KHTML, like Gecko) Chrome/132.0.0.0 Safari/537.36" version="26.0.6">
  <diagram name="PÃ¡gina-1" id="Ctk8yuAHb6obEWbZi3id">
    <mxGraphModel dx="880" dy="434" grid="1" gridSize="10" guides="1" tooltips="1" connect="1" arrows="1" fold="1" page="1" pageScale="1" pageWidth="827" pageHeight="1169" math="0" shadow="0">
      <root>
        <mxCell id="0" />
        <mxCell id="1" parent="0" />
        <mxCell id="l3TwPNawexqjRNcej3xr-19" style="edgeStyle=orthogonalEdgeStyle;rounded=0;orthogonalLoop=1;jettySize=auto;html=1;exitX=0.5;exitY=1;exitDx=0;exitDy=0;exitPerimeter=0;entryX=0.5;entryY=0;entryDx=0;entryDy=0;" parent="1" source="GjacK0gFJ8SMjtaHLXyp-1" target="GjacK0gFJ8SMjtaHLXyp-3" edge="1">
          <mxGeometry relative="1" as="geometry" />
        </mxCell>
        <mxCell id="GjacK0gFJ8SMjtaHLXyp-1" value="INICIO" style="strokeWidth=2;html=1;shape=mxgraph.flowchart.start_1;whiteSpace=wrap;" parent="1" vertex="1">
          <mxGeometry x="364" y="100" width="100" height="60" as="geometry" />
        </mxCell>
        <mxCell id="GjacK0gFJ8SMjtaHLXyp-2" value="FIM" style="strokeWidth=2;html=1;shape=mxgraph.flowchart.start_1;whiteSpace=wrap;" parent="1" vertex="1">
          <mxGeometry x="364" y="810" width="100" height="60" as="geometry" />
        </mxCell>
        <mxCell id="l3TwPNawexqjRNcej3xr-20" style="edgeStyle=orthogonalEdgeStyle;rounded=0;orthogonalLoop=1;jettySize=auto;html=1;exitX=0.5;exitY=1;exitDx=0;exitDy=0;entryX=0.5;entryY=0;entryDx=0;entryDy=0;" parent="1" source="GjacK0gFJ8SMjtaHLXyp-3" target="GjacK0gFJ8SMjtaHLXyp-4" edge="1">
          <mxGeometry relative="1" as="geometry" />
        </mxCell>
        <mxCell id="GjacK0gFJ8SMjtaHLXyp-3" value="PRODUTO" style="shape=parallelogram;html=1;strokeWidth=2;perimeter=parallelogramPerimeter;whiteSpace=wrap;rounded=1;arcSize=12;size=0.23;" parent="1" vertex="1">
          <mxGeometry x="296" y="180" width="236" height="40" as="geometry" />
        </mxCell>
        <mxCell id="l3TwPNawexqjRNcej3xr-21" style="edgeStyle=orthogonalEdgeStyle;rounded=0;orthogonalLoop=1;jettySize=auto;html=1;exitX=0.5;exitY=1;exitDx=0;exitDy=0;entryX=0.5;entryY=0;entryDx=0;entryDy=0;" parent="1" source="GjacK0gFJ8SMjtaHLXyp-4" target="l3TwPNawexqjRNcej3xr-1" edge="1">
          <mxGeometry relative="1" as="geometry" />
        </mxCell>
        <mxCell id="GjacK0gFJ8SMjtaHLXyp-4" value="VALOR DO PRODUTO" style="shape=parallelogram;html=1;strokeWidth=2;perimeter=parallelogramPerimeter;whiteSpace=wrap;rounded=1;arcSize=12;size=0.23;" parent="1" vertex="1">
          <mxGeometry x="296" y="240" width="236" height="40" as="geometry" />
        </mxCell>
        <mxCell id="l3TwPNawexqjRNcej3xr-4" style="edgeStyle=orthogonalEdgeStyle;rounded=0;orthogonalLoop=1;jettySize=auto;html=1;exitX=0.5;exitY=1;exitDx=0;exitDy=0;exitPerimeter=0;entryX=0.5;entryY=0;entryDx=0;entryDy=0;" parent="1" source="GjacK0gFJ8SMjtaHLXyp-6" target="l3TwPNawexqjRNcej3xr-2" edge="1">
          <mxGeometry relative="1" as="geometry" />
        </mxCell>
        <mxCell id="l3TwPNawexqjRNcej3xr-5" value="SIM" style="edgeLabel;html=1;align=center;verticalAlign=middle;resizable=0;points=[];" parent="l3TwPNawexqjRNcej3xr-4" vertex="1" connectable="0">
          <mxGeometry x="-0.2" y="2" relative="1" as="geometry">
            <mxPoint as="offset" />
          </mxGeometry>
        </mxCell>
        <mxCell id="GjacK0gFJ8SMjtaHLXyp-6" value="CONTINUE = 0" style="strokeWidth=2;html=1;shape=mxgraph.flowchart.decision;whiteSpace=wrap;" parent="1" vertex="1">
          <mxGeometry x="349" y="365" width="130" height="130" as="geometry" />
        </mxCell>
        <mxCell id="l3TwPNawexqjRNcej3xr-7" style="edgeStyle=orthogonalEdgeStyle;rounded=0;orthogonalLoop=1;jettySize=auto;html=1;exitX=0.5;exitY=1;exitDx=0;exitDy=0;" parent="1" source="l3TwPNawexqjRNcej3xr-1" edge="1">
          <mxGeometry relative="1" as="geometry">
            <mxPoint x="414" y="360" as="targetPoint" />
          </mxGeometry>
        </mxCell>
        <mxCell id="l3TwPNawexqjRNcej3xr-1" value="&lt;font style=&quot;vertical-align: inherit;&quot;&gt;&lt;font style=&quot;vertical-align: inherit;&quot;&gt;&lt;font style=&quot;vertical-align: inherit;&quot;&gt;&lt;font style=&quot;vertical-align: inherit;&quot;&gt;&lt;font style=&quot;vertical-align: inherit;&quot;&gt;&lt;font style=&quot;vertical-align: inherit;&quot;&gt;CONTINUE = 0&lt;/font&gt;&lt;/font&gt;&lt;/font&gt;&lt;/font&gt;&lt;/font&gt;&lt;/font&gt;" style="rounded=1;whiteSpace=wrap;html=1;absoluteArcSize=1;arcSize=14;strokeWidth=2;" parent="1" vertex="1">
          <mxGeometry x="301" y="300" width="226" height="40" as="geometry" />
        </mxCell>
        <mxCell id="l3TwPNawexqjRNcej3xr-6" style="edgeStyle=orthogonalEdgeStyle;rounded=0;orthogonalLoop=1;jettySize=auto;html=1;exitX=0.5;exitY=1;exitDx=0;exitDy=0;entryX=0.5;entryY=0;entryDx=0;entryDy=0;" parent="1" source="l3TwPNawexqjRNcej3xr-2" target="l3TwPNawexqjRNcej3xr-3" edge="1">
          <mxGeometry relative="1" as="geometry" />
        </mxCell>
        <mxCell id="l3TwPNawexqjRNcej3xr-2" value="TOTALCOMPRA = TOTALCOMPRA + VALOR" style="rounded=1;whiteSpace=wrap;html=1;absoluteArcSize=1;arcSize=14;strokeWidth=2;" parent="1" vertex="1">
          <mxGeometry x="301" y="520" width="226" height="40" as="geometry" />
        </mxCell>
        <mxCell id="l3TwPNawexqjRNcej3xr-8" style="edgeStyle=orthogonalEdgeStyle;rounded=0;orthogonalLoop=1;jettySize=auto;html=1;exitX=0;exitY=0.5;exitDx=0;exitDy=0;entryX=0;entryY=0.5;entryDx=0;entryDy=0;" parent="1" source="l3TwPNawexqjRNcej3xr-3" target="l3TwPNawexqjRNcej3xr-1" edge="1">
          <mxGeometry relative="1" as="geometry">
            <Array as="points">
              <mxPoint x="240" y="600" />
              <mxPoint x="240" y="320" />
            </Array>
          </mxGeometry>
        </mxCell>
        <mxCell id="l3TwPNawexqjRNcej3xr-3" value="PRODCOMPRADOS = PRODCOMPRADOS + PRODUTO +" style="rounded=1;whiteSpace=wrap;html=1;absoluteArcSize=1;arcSize=14;strokeWidth=2;" parent="1" vertex="1">
          <mxGeometry x="301" y="580" width="226" height="40" as="geometry" />
        </mxCell>
        <mxCell id="l3TwPNawexqjRNcej3xr-9" value="PRODUTOS COMPRADOS&lt;br&gt;TOTAL DA COMPRA" style="strokeWidth=2;html=1;shape=mxgraph.flowchart.display;whiteSpace=wrap;" parent="1" vertex="1">
          <mxGeometry x="322.34000000000003" y="640" width="183.33" height="110" as="geometry" />
        </mxCell>
        <mxCell id="l3TwPNawexqjRNcej3xr-10" style="edgeStyle=orthogonalEdgeStyle;rounded=0;orthogonalLoop=1;jettySize=auto;html=1;exitX=0.5;exitY=1;exitDx=0;exitDy=0;exitPerimeter=0;entryX=0.5;entryY=0;entryDx=0;entryDy=0;entryPerimeter=0;" parent="1" source="l3TwPNawexqjRNcej3xr-9" target="GjacK0gFJ8SMjtaHLXyp-2" edge="1">
          <mxGeometry relative="1" as="geometry" />
        </mxCell>
        <mxCell id="l3TwPNawexqjRNcej3xr-17" style="edgeStyle=orthogonalEdgeStyle;rounded=0;orthogonalLoop=1;jettySize=auto;html=1;exitX=1;exitY=0.5;exitDx=0;exitDy=0;exitPerimeter=0;entryX=1;entryY=0.5;entryDx=0;entryDy=0;entryPerimeter=0;" parent="1" source="GjacK0gFJ8SMjtaHLXyp-6" target="l3TwPNawexqjRNcej3xr-9" edge="1">
          <mxGeometry relative="1" as="geometry">
            <Array as="points">
              <mxPoint x="580" y="430" />
              <mxPoint x="580" y="695" />
            </Array>
          </mxGeometry>
        </mxCell>
        <mxCell id="l3TwPNawexqjRNcej3xr-18" value="NAO" style="edgeLabel;html=1;align=center;verticalAlign=middle;resizable=0;points=[];" parent="l3TwPNawexqjRNcej3xr-17" vertex="1" connectable="0">
          <mxGeometry x="-0.7684" y="-1" relative="1" as="geometry">
            <mxPoint as="offset" />
          </mxGeometry>
        </mxCell>
      </root>
    </mxGraphModel>
  </diagram>
</mxfile>
